<?xml version="1.0" standalone="no"?><svg xmlns:xlink="http://www.w3.org/1999/xlink" xmlns="http://www.w3.org/2000/svg" viewBox="0 0 1980 1980" preserveAspectRatio="xMaxYMax slice"><g transform="scale(4.094292803970223)"><rect x="0" y="0" width="483.6" height="483.6" fill="#ffffff"/><path d="M 24.18 0 A 24.18 24.18 0 0 1  48.36 24.18 L 24.18 0 A 24.18 24.18 0 0 0 48.36 24.18" fill="#3fa69a"/><path d="M 48.36 0 A 24.18 24.18 0 0 1  72.53999999999999 24.18 L 48.36 0 A 24.18 24.18 0 0 0 72.53999999999999 24.18" fill="#8fccc5"/><rect x="72.53999999999999" y="0" width="24.18" height="24.18" fill="#ffffff"/><path d="M 72.54 12.09 A 12.09 12.09 0 0 1  84.63000000000001 0 L 72.54 12.09 A 12.09 12.09 0 0 0 84.63000000000001 0" fill="#61b6ac"/><path d="M 72.54 12.09 A 12.09 12.09 0 0 1  84.63000000000001 24.18 L 72.54 12.09 A 12.09 12.09 0 0 0 84.63000000000001 24.18" fill="#eed18c"/><rect x="96.72" y="0" width="24.18" height="24.18" fill="#ffffff"/><path d="M 96.72 12.09 A 12.09 12.09 0 0 1  108.81 0 L 96.72 12.09 A 12.09 12.09 0 0 0 108.81 0" fill="#53b0a5"/><path d="M 108.81 12.09 A 12.09 12.09 0 0 1  120.9 24.18 L 108.81 12.09 A 12.09 12.09 0 0 0 120.9 24.18" fill="#f2b1a1"/><path d="M 120.9 24.18 A 24.18 24.18 0 0 1  145.08 0 L 120.9 24.18 A 24.18 24.18 0 0 0 145.08 0" fill="#edcf86"/><path d="M 193.44 24.18 A 24.18 24.18 0 0 1  217.62 0 L 193.44 24.18 A 24.18 24.18 0 0 0 217.62 0" fill="#f9d8d0"/><rect x="217.62" y="0" width="24.18" height="24.18" fill="#ffffff"/><path d="M 229.71 0 A 12.09 12.09 0 0 1  241.8 12.09 L 229.71 0 A 12.09 12.09 0 0 0 241.8 12.09" fill="#fceae6"/><rect x="265.98" y="0" width="24.18" height="24.18" fill="#ffffff"/><path d="M 278.07 12.09 A 12.09 12.09 0 0 1  290.15999999999997 0 L 278.07 12.09 A 12.09 12.09 0 0 0 290.15999999999997 0" fill="#f2af9f"/><path d="M 265.98 24.18 A 12.09 12.09 0 0 1  278.07 12.09 L 265.98 24.18 A 12.09 12.09 0 0 0 278.07 12.09" fill="#eed18a"/><rect x="386.88" y="0" width="24.18" height="24.18" fill="#ffffff"/><rect x="411.06" y="0" width="24.18" height="24.18" fill="#ffffff"/><path d="M 423.15 0 A 12.09 12.09 0 0 1  435.23999999999995 12.09 L 423.15 0 A 12.09 12.09 0 0 0 435.23999999999995 12.09" fill="#6cbbb2"/><path d="M 411.06 12.09 A 12.09 12.09 0 0 1  423.15 24.18 L 411.06 12.09 A 12.09 12.09 0 0 0 423.15 24.18" fill="#ef9e8a"/><path d="M 435.24 24.18 A 24.18 24.18 0 0 1  459.42 0 L 435.24 24.18 A 24.18 24.18 0 0 0 459.42 0" fill="#f1ad9c"/><rect x="120.9" y="24.18" width="24.18" height="24.18" fill="#ffffff"/><path d="M 120.9 24.18 A 12.09 12.09 0 0 1  132.99 36.269999999999996 L 120.9 24.18 A 12.09 12.09 0 0 0 132.99 36.269999999999996" fill="#fbf4e2"/><path d="M 132.99 36.269999999999996 A 12.09 12.09 0 0 1  145.08 24.18 L 132.99 36.269999999999996 A 12.09 12.09 0 0 0 145.08 24.18" fill="#f2b2a2"/><path d="M 120.9 36.27 A 12.09 12.09 0 0 1  132.99 48.36 L 120.9 36.27 A 12.09 12.09 0 0 0 132.99 48.36" fill="#ef9c87"/><path d="M 132.99 48.36 A 12.09 12.09 0 0 1  145.08 36.27 L 132.99 48.36 A 12.09 12.09 0 0 0 145.08 36.27" fill="#fae0da"/><path d="M 241.8 48.36 A 24.18 24.18 0 0 1  265.98 24.18 L 241.8 48.36 A 24.18 24.18 0 0 0 265.98 24.18" fill="#f8d2c9"/><path d="M 290.16 24.18 A 24.18 24.18 0 0 1  314.34000000000003 48.36 L 290.16 24.18 A 24.18 24.18 0 0 0 314.34000000000003 48.36" fill="#f3dfaf"/><path d="M 338.52 48.36 A 24.18 24.18 0 0 1  362.7 24.18 L 338.52 48.36 A 24.18 24.18 0 0 0 362.7 24.18" fill="#7cc2ba"/><rect x="435.24" y="24.18" width="24.18" height="24.18" fill="#ffffff"/><path d="M 72.54 72.53999999999999 A 24.18 24.18 0 0 1  96.72 48.36 L 72.54 72.53999999999999 A 24.18 24.18 0 0 0 96.72 48.36" fill="#f8edd2"/><path d="M 193.44 48.36 A 24.18 24.18 0 0 1  217.62 72.53999999999999 L 193.44 48.36 A 24.18 24.18 0 0 0 217.62 72.53999999999999" fill="#fffefc"/><rect x="241.8" y="48.36" width="24.18" height="24.18" fill="#ffffff"/><path d="M 241.8 48.36 A 12.09 12.09 0 0 1  253.89000000000001 60.45 L 241.8 48.36 A 12.09 12.09 0 0 0 253.89000000000001 60.45" fill="#64b8ae"/><path d="M 253.89 60.45 A 12.09 12.09 0 0 1  265.97999999999996 48.36 L 253.89 60.45 A 12.09 12.09 0 0 0 265.97999999999996 48.36" fill="#ed937d"/><rect x="290.15999999999997" y="48.36" width="24.18" height="24.18" fill="#ffffff"/><path d="M 302.25 72.54 A 12.09 12.09 0 0 1  314.34 60.45 L 302.25 72.54 A 12.09 12.09 0 0 0 314.34 60.45" fill="#fffefe"/><path d="M 314.34 72.53999999999999 A 24.18 24.18 0 0 1  338.52 48.36 L 314.34 72.53999999999999 A 24.18 24.18 0 0 0 338.52 48.36" fill="#fdfaf2"/><path d="M 459.42 48.36 A 24.18 24.18 0 0 1  483.6 72.53999999999999 L 459.42 48.36 A 24.18 24.18 0 0 0 483.6 72.53999999999999" fill="#f2dda9"/><path d="M 0 72.54 A 24.18 24.18 0 0 1  24.18 96.72 L 0 72.54 A 24.18 24.18 0 0 0 24.18 96.72" fill="#f7d0c6"/><path d="M 24.18 96.72 A 24.18 24.18 0 0 1  48.36 72.54 L 24.18 96.72 A 24.18 24.18 0 0 0 48.36 72.54" fill="#fdfaf2"/><path d="M 72.54 72.54 A 24.18 24.18 0 0 1  96.72 96.72 L 72.54 72.54 A 24.18 24.18 0 0 0 96.72 96.72" fill="#fffffe"/><rect x="96.72" y="72.53999999999999" width="24.18" height="24.18" fill="#ffffff"/><path d="M 145.08 72.54 A 24.18 24.18 0 0 1  169.26000000000002 96.72 L 145.08 72.54 A 24.18 24.18 0 0 0 169.26000000000002 96.72" fill="#80c4bc"/><rect x="217.62" y="72.53999999999999" width="24.18" height="24.18" fill="#ffffff"/><path d="M 217.62 84.63000000000001 A 12.09 12.09 0 0 1  229.71 72.54 L 217.62 84.63000000000001 A 12.09 12.09 0 0 0 229.71 72.54" fill="#fbf4e3"/><path d="M 229.71 84.63000000000001 A 12.09 12.09 0 0 1  241.8 72.54 L 229.71 84.63000000000001 A 12.09 12.09 0 0 0 241.8 72.54" fill="#e3f2f1"/><path d="M 229.71 96.72 A 12.09 12.09 0 0 1  241.8 84.63 L 229.71 96.72 A 12.09 12.09 0 0 0 241.8 84.63" fill="#f1f8f8"/><path d="M 338.52 72.54 A 24.18 24.18 0 0 1  362.7 96.72 L 338.52 72.54 A 24.18 24.18 0 0 0 362.7 96.72" fill="#60b6ac"/><rect x="362.7" y="72.53999999999999" width="24.18" height="24.18" fill="#ffffff"/><path d="M 374.79 84.63000000000001 A 12.09 12.09 0 0 1  386.88 72.54 L 374.79 84.63000000000001 A 12.09 12.09 0 0 0 386.88 72.54" fill="#ec8c74"/><path d="M 374.79 96.72 A 12.09 12.09 0 0 1  386.88 84.63 L 374.79 96.72 A 12.09 12.09 0 0 0 386.88 84.63" fill="#f0a491"/><path d="M 386.88 96.72 A 24.18 24.18 0 0 1  411.06 72.54 L 386.88 96.72 A 24.18 24.18 0 0 0 411.06 72.54" fill="#ef9d89"/><path d="M 24.18 96.72 A 24.18 24.18 0 0 1  48.36 120.9 L 24.18 96.72 A 24.18 24.18 0 0 0 48.36 120.9" fill="#f4bdb0"/><rect x="120.9" y="96.72" width="24.18" height="24.18" fill="#ffffff"/><path d="M 132.99 120.9 A 12.09 12.09 0 0 1  145.08 108.81 L 132.99 120.9 A 12.09 12.09 0 0 0 145.08 108.81" fill="#f3b6a7"/><path d="M 193.44 120.9 A 24.18 24.18 0 0 1  217.62 96.72 L 193.44 120.9 A 24.18 24.18 0 0 0 217.62 96.72" fill="#f4bcaf"/><rect x="241.8" y="96.72" width="24.18" height="24.18" fill="#ffffff"/><path d="M 241.8 120.9 A 12.09 12.09 0 0 1  253.89000000000001 108.81 L 241.8 120.9 A 12.09 12.09 0 0 0 253.89000000000001 108.81" fill="#d3ebe8"/><rect x="96.72" y="120.9" width="24.18" height="24.18" fill="#ffffff"/><path d="M 96.72 132.99 A 12.09 12.09 0 0 1  108.81 120.9 L 96.72 132.99 A 12.09 12.09 0 0 0 108.81 120.9" fill="#71bdb5"/><rect x="145.07999999999998" y="120.9" width="24.18" height="24.18" fill="#ffffff"/><path d="M 157.17 132.99 A 12.09 12.09 0 0 1  169.26 145.08 L 157.17 132.99 A 12.09 12.09 0 0 0 169.26 145.08" fill="#f0d79a"/><path d="M 169.26 120.9 A 24.18 24.18 0 0 1  193.44 145.08 L 169.26 120.9 A 24.18 24.18 0 0 0 193.44 145.08" fill="#b9dfda"/><rect x="193.44" y="120.9" width="24.18" height="24.18" fill="#ffffff"/><path d="M 205.53 120.9 A 12.09 12.09 0 0 1  217.62 132.99 L 205.53 120.9 A 12.09 12.09 0 0 0 217.62 132.99" fill="#7dc3bb"/><rect x="241.8" y="120.9" width="24.18" height="24.18" fill="#ffffff"/><path d="M 253.89 132.99 A 12.09 12.09 0 0 1  265.97999999999996 120.9 L 253.89 132.99 A 12.09 12.09 0 0 0 265.97999999999996 120.9" fill="#f7cec4"/><path d="M 241.8 132.99 A 12.09 12.09 0 0 1  253.89000000000001 145.08 L 241.8 132.99 A 12.09 12.09 0 0 0 253.89000000000001 145.08" fill="#f7cec4"/><path d="M 265.98 145.08 A 24.18 24.18 0 0 1  290.16 120.9 L 265.98 145.08 A 24.18 24.18 0 0 0 290.16 120.9" fill="#ebcb7c"/><path d="M 338.52 145.08 A 24.18 24.18 0 0 1  362.7 120.9 L 338.52 145.08 A 24.18 24.18 0 0 0 362.7 120.9" fill="#58b2a7"/><rect x="435.24" y="120.9" width="24.18" height="24.18" fill="#ffffff"/><rect x="0" y="145.07999999999998" width="24.18" height="24.18" fill="#ffffff"/><path d="M 12.09 157.17 A 12.09 12.09 0 0 1  24.18 169.26 L 12.09 157.17 A 12.09 12.09 0 0 0 24.18 169.26" fill="#ee9680"/><rect x="48.36" y="145.07999999999998" width="24.18" height="24.18" fill="#ffffff"/><path d="M 48.36 169.26 A 12.09 12.09 0 0 1  60.45 157.17 L 48.36 169.26 A 12.09 12.09 0 0 0 60.45 157.17" fill="#f6cbc1"/><path d="M 60.45 169.26 A 12.09 12.09 0 0 1  72.54 157.17 L 60.45 169.26 A 12.09 12.09 0 0 0 72.54 157.17" fill="#f5e3b9"/><rect x="145.07999999999998" y="145.07999999999998" width="24.18" height="24.18" fill="#ffffff"/><path d="M 145.08 157.17000000000002 A 12.09 12.09 0 0 1  157.17000000000002 145.08 L 145.08 157.17000000000002 A 12.09 12.09 0 0 0 157.17000000000002 145.08" fill="#f1daa2"/><path d="M 157.17 157.17000000000002 A 12.09 12.09 0 0 1  169.26 145.08 L 157.17 157.17000000000002 A 12.09 12.09 0 0 0 169.26 145.08" fill="#edd088"/><path d="M 193.44 145.08 A 24.18 24.18 0 0 1  217.62 169.26000000000002 L 193.44 145.08 A 24.18 24.18 0 0 0 217.62 169.26000000000002" fill="#fdf9ef"/><rect x="217.62" y="145.07999999999998" width="24.18" height="24.18" fill="#ffffff"/><path d="M 229.71 157.17 A 12.09 12.09 0 0 1  241.8 169.26 L 229.71 157.17 A 12.09 12.09 0 0 0 241.8 169.26" fill="#f5c1b5"/><rect x="265.98" y="145.07999999999998" width="24.18" height="24.18" fill="#ffffff"/><path d="M 265.98 145.08 A 12.09 12.09 0 0 1  278.07 157.17000000000002 L 265.98 145.08 A 12.09 12.09 0 0 0 278.07 157.17000000000002" fill="#eb846b"/><path d="M 278.07 145.08 A 12.09 12.09 0 0 1  290.15999999999997 157.17000000000002 L 278.07 145.08 A 12.09 12.09 0 0 0 290.15999999999997 157.17000000000002" fill="#fefbfa"/><path d="M 265.98 169.26 A 12.09 12.09 0 0 1  278.07 157.17 L 265.98 169.26 A 12.09 12.09 0 0 0 278.07 157.17" fill="#eed18a"/><path d="M 278.07 169.26 A 12.09 12.09 0 0 1  290.15999999999997 157.17 L 278.07 169.26 A 12.09 12.09 0 0 0 290.15999999999997 157.17" fill="#ddefed"/><rect x="314.34" y="145.07999999999998" width="24.18" height="24.18" fill="#ffffff"/><path d="M 326.43 169.26 A 12.09 12.09 0 0 1  338.52 157.17 L 326.43 169.26 A 12.09 12.09 0 0 0 338.52 157.17" fill="#faf2dd"/><path d="M 386.88 145.08 A 24.18 24.18 0 0 1  411.06 169.26000000000002 L 386.88 145.08 A 24.18 24.18 0 0 0 411.06 169.26000000000002" fill="#f0a795"/><path d="M 459.42 169.26000000000002 A 24.18 24.18 0 0 1  483.6 145.08 L 459.42 169.26000000000002 A 24.18 24.18 0 0 0 483.6 145.08" fill="#f5e5be"/><path d="M 72.54 169.26 A 24.18 24.18 0 0 1  96.72 193.44 L 72.54 169.26 A 24.18 24.18 0 0 0 96.72 193.44" fill="#f6c9be"/><rect x="120.9" y="169.26" width="24.18" height="24.18" fill="#ffffff"/><rect x="290.15999999999997" y="169.26" width="24.18" height="24.18" fill="#ffffff"/><path d="M 302.25 181.35 A 12.09 12.09 0 0 1  314.34 193.44 L 302.25 181.35 A 12.09 12.09 0 0 0 314.34 193.44" fill="#f4e2b6"/><path d="M 314.34 193.44 A 24.18 24.18 0 0 1  338.52 169.26 L 314.34 193.44 A 24.18 24.18 0 0 0 338.52 169.26" fill="#41a79b"/><rect x="24.18" y="193.44" width="24.18" height="24.18" fill="#ffffff"/><path d="M 24.18 193.44 A 12.09 12.09 0 0 1  36.269999999999996 205.53 L 24.18 193.44 A 12.09 12.09 0 0 0 36.269999999999996 205.53" fill="#f8fcfb"/><path d="M 24.18 205.53 A 12.09 12.09 0 0 1  36.269999999999996 217.62 L 24.18 205.53 A 12.09 12.09 0 0 0 36.269999999999996 217.62" fill="#fae3dd"/><path d="M 120.9 217.62 A 24.18 24.18 0 0 1  145.08 193.44 L 120.9 217.62 A 24.18 24.18 0 0 0 145.08 193.44" fill="#ffffff"/><path d="M 145.08 217.62 A 24.18 24.18 0 0 1  169.26000000000002 193.44 L 145.08 217.62 A 24.18 24.18 0 0 0 169.26000000000002 193.44" fill="#58b2a8"/><path d="M 193.44 217.62 A 24.18 24.18 0 0 1  217.62 193.44 L 193.44 217.62 A 24.18 24.18 0 0 0 217.62 193.44" fill="#7dc3bb"/><path d="M 217.62 193.44 A 24.18 24.18 0 0 1  241.8 217.62 L 217.62 193.44 A 24.18 24.18 0 0 0 241.8 217.62" fill="#f8d4cb"/><rect x="314.34" y="193.44" width="24.18" height="24.18" fill="#ffffff"/><path d="M 314.34 217.62 A 12.09 12.09 0 0 1  326.42999999999995 205.53 L 314.34 217.62 A 12.09 12.09 0 0 0 326.42999999999995 205.53" fill="#8bc9c2"/><path d="M 326.43 205.53 A 12.09 12.09 0 0 1  338.52 217.62 L 326.43 205.53 A 12.09 12.09 0 0 0 338.52 217.62" fill="#d5ece9"/><rect x="386.88" y="193.44" width="24.18" height="24.18" fill="#ffffff"/><path d="M 386.88 205.53 A 12.09 12.09 0 0 1  398.96999999999997 193.44 L 386.88 205.53 A 12.09 12.09 0 0 0 398.96999999999997 193.44" fill="#f0a390"/><rect x="48.36" y="217.62" width="24.18" height="24.18" fill="#ffffff"/><path d="M 60.45 241.8 A 12.09 12.09 0 0 1  72.54 229.71 L 60.45 241.8 A 12.09 12.09 0 0 0 72.54 229.71" fill="#fffefe"/><path d="M 72.54 241.8 A 24.18 24.18 0 0 1  96.72 217.62 L 72.54 241.8 A 24.18 24.18 0 0 0 96.72 217.62" fill="#7ec4bc"/><path d="M 96.72 241.8 A 24.18 24.18 0 0 1  120.9 217.62 L 96.72 241.8 A 24.18 24.18 0 0 0 120.9 217.62" fill="#cce7e4"/><rect x="120.9" y="217.62" width="24.18" height="24.18" fill="#ffffff"/><path d="M 120.9 229.71 A 12.09 12.09 0 0 1  132.99 217.62 L 120.9 229.71 A 12.09 12.09 0 0 0 132.99 217.62" fill="#8ac9c2"/><path d="M 120.9 241.8 A 12.09 12.09 0 0 1  132.99 229.71 L 120.9 241.8 A 12.09 12.09 0 0 0 132.99 229.71" fill="#f0a390"/><rect x="217.62" y="217.62" width="24.18" height="24.18" fill="#ffffff"/><path d="M 229.71 229.71 A 12.09 12.09 0 0 1  241.8 241.8 L 229.71 229.71 A 12.09 12.09 0 0 0 241.8 241.8" fill="#fbe7e2"/><path d="M 241.8 217.62 A 24.18 24.18 0 0 1  265.98 241.8 L 241.8 217.62 A 24.18 24.18 0 0 0 265.98 241.8" fill="#f9ddd6"/><rect x="314.34" y="217.62" width="24.18" height="24.18" fill="#ffffff"/><path d="M 326.43 217.62 A 12.09 12.09 0 0 1  338.52 229.71 L 326.43 217.62 A 12.09 12.09 0 0 0 338.52 229.71" fill="#f2deab"/><rect x="362.7" y="217.62" width="24.18" height="24.18" fill="#ffffff"/><path d="M 374.79 229.71 A 12.09 12.09 0 0 1  386.88 241.8 L 374.79 229.71 A 12.09 12.09 0 0 0 386.88 241.8" fill="#f4bbad"/><rect x="459.42" y="217.62" width="24.18" height="24.18" fill="#ffffff"/><path d="M 471.51 229.71 A 12.09 12.09 0 0 1  483.59999999999997 241.8 L 471.51 229.71 A 12.09 12.09 0 0 0 483.59999999999997 241.8" fill="#f4baac"/><path d="M 0 265.98 A 24.18 24.18 0 0 1  24.18 241.8 L 0 265.98 A 24.18 24.18 0 0 0 24.18 241.8" fill="#a9d7d2"/><rect x="24.18" y="241.8" width="24.18" height="24.18" fill="#ffffff"/><path d="M 36.27 265.97999999999996 A 12.09 12.09 0 0 1  48.36 253.89 L 36.27 265.97999999999996 A 12.09 12.09 0 0 0 48.36 253.89" fill="#9ad1ca"/><path d="M 48.36 241.8 A 24.18 24.18 0 0 1  72.53999999999999 265.98 L 48.36 241.8 A 24.18 24.18 0 0 0 72.53999999999999 265.98" fill="#f8d3ca"/><path d="M 96.72 265.98 A 24.18 24.18 0 0 1  120.9 241.8 L 96.72 265.98 A 24.18 24.18 0 0 0 120.9 241.8" fill="#edce84"/><rect x="145.07999999999998" y="241.8" width="24.18" height="24.18" fill="#ffffff"/><path d="M 145.08 241.8 A 12.09 12.09 0 0 1  157.17000000000002 253.89000000000001 L 145.08 241.8 A 12.09 12.09 0 0 0 157.17000000000002 253.89000000000001" fill="#f7eacb"/><path d="M 157.17 265.97999999999996 A 12.09 12.09 0 0 1  169.26 253.89 L 157.17 265.97999999999996 A 12.09 12.09 0 0 0 169.26 253.89" fill="#ea8066"/><rect x="193.44" y="241.8" width="24.18" height="24.18" fill="#ffffff"/><path d="M 205.53 253.89 A 12.09 12.09 0 0 1  217.62 265.97999999999996 L 205.53 253.89 A 12.09 12.09 0 0 0 217.62 265.97999999999996" fill="#f6cabf"/><path d="M 241.8 241.8 A 24.18 24.18 0 0 1  265.98 265.98 L 241.8 241.8 A 24.18 24.18 0 0 0 265.98 265.98" fill="#bee1dd"/><rect x="265.98" y="241.8" width="24.18" height="24.18" fill="#ffffff"/><path d="M 278.07 253.89 A 12.09 12.09 0 0 1  290.15999999999997 265.97999999999996 L 278.07 253.89 A 12.09 12.09 0 0 0 290.15999999999997 265.97999999999996" fill="#eed38f"/><path d="M 314.34 265.98 A 24.18 24.18 0 0 1  338.52 241.8 L 314.34 265.98 A 24.18 24.18 0 0 0 338.52 241.8" fill="#f8d3ca"/><rect x="338.52" y="241.8" width="24.18" height="24.18" fill="#ffffff"/><path d="M 338.52 241.8 A 12.09 12.09 0 0 1  350.60999999999996 253.89000000000001 L 338.52 241.8 A 12.09 12.09 0 0 0 350.60999999999996 253.89000000000001" fill="#61b6ad"/><path d="M 350.61 241.8 A 12.09 12.09 0 0 1  362.7 253.89000000000001 L 350.61 241.8 A 12.09 12.09 0 0 0 362.7 253.89000000000001" fill="#f8d3c9"/><path d="M 338.52 265.97999999999996 A 12.09 12.09 0 0 1  350.60999999999996 253.89 L 338.52 265.97999999999996 A 12.09 12.09 0 0 0 350.60999999999996 253.89" fill="#fdf5f3"/><path d="M 435.24 265.98 A 24.18 24.18 0 0 1  459.42 241.8 L 435.24 265.98 A 24.18 24.18 0 0 0 459.42 241.8" fill="#ec8e77"/><path d="M 0 265.98 A 24.18 24.18 0 0 1  24.18 290.16 L 0 265.98 A 24.18 24.18 0 0 0 24.18 290.16" fill="#f0a694"/><path d="M 48.36 290.16 A 24.18 24.18 0 0 1  72.53999999999999 265.98 L 48.36 290.16 A 24.18 24.18 0 0 0 72.53999999999999 265.98" fill="#ef9e8a"/><path d="M 169.26 265.98 A 24.18 24.18 0 0 1  193.44 290.16 L 169.26 265.98 A 24.18 24.18 0 0 0 193.44 290.16" fill="#f1f8f7"/><path d="M 193.44 265.98 A 24.18 24.18 0 0 1  217.62 290.16 L 193.44 265.98 A 24.18 24.18 0 0 0 217.62 290.16" fill="#faf2de"/><rect x="241.8" y="265.98" width="24.18" height="24.18" fill="#ffffff"/><path d="M 241.8 265.98 A 12.09 12.09 0 0 1  253.89000000000001 278.07 L 241.8 265.98 A 12.09 12.09 0 0 0 253.89000000000001 278.07" fill="#edd089"/><path d="M 253.89 265.98 A 12.09 12.09 0 0 1  265.97999999999996 278.07 L 253.89 265.98 A 12.09 12.09 0 0 0 265.97999999999996 278.07" fill="#bfe2de"/><path d="M 241.8 290.15999999999997 A 12.09 12.09 0 0 1  253.89000000000001 278.07 L 241.8 290.15999999999997 A 12.09 12.09 0 0 0 253.89000000000001 278.07" fill="#f5e4ba"/><path d="M 253.89 290.15999999999997 A 12.09 12.09 0 0 1  265.97999999999996 278.07 L 253.89 290.15999999999997 A 12.09 12.09 0 0 0 265.97999999999996 278.07" fill="#f8d4cc"/><path d="M 265.98 290.16 A 24.18 24.18 0 0 1  290.16 265.98 L 265.98 290.16 A 24.18 24.18 0 0 0 290.16 265.98" fill="#f6c7bb"/><rect x="386.88" y="265.98" width="24.18" height="24.18" fill="#ffffff"/><path d="M 386.88 278.07 A 12.09 12.09 0 0 1  398.96999999999997 265.98 L 386.88 278.07 A 12.09 12.09 0 0 0 398.96999999999997 265.98" fill="#f3b9ab"/><rect x="411.06" y="265.98" width="24.18" height="24.18" fill="#ffffff"/><path d="M 423.15 278.07 A 12.09 12.09 0 0 1  435.23999999999995 290.15999999999997 L 423.15 278.07 A 12.09 12.09 0 0 0 435.23999999999995 290.15999999999997" fill="#fcece8"/><path d="M 459.42 290.16 A 24.18 24.18 0 0 1  483.6 265.98 L 459.42 290.16 A 24.18 24.18 0 0 0 483.6 265.98" fill="#f3deac"/><rect x="24.18" y="290.15999999999997" width="24.18" height="24.18" fill="#ffffff"/><path d="M 24.18 290.16 A 12.09 12.09 0 0 1  36.269999999999996 302.25 L 24.18 290.16 A 12.09 12.09 0 0 0 36.269999999999996 302.25" fill="#fcedea"/><path d="M 24.18 314.34 A 12.09 12.09 0 0 1  36.269999999999996 302.25 L 24.18 314.34 A 12.09 12.09 0 0 0 36.269999999999996 302.25" fill="#f3b6a7"/><path d="M 48.36 314.34000000000003 A 24.18 24.18 0 0 1  72.53999999999999 290.16 L 48.36 314.34000000000003 A 24.18 24.18 0 0 0 72.53999999999999 290.16" fill="#fdfaf2"/><path d="M 72.54 290.16 A 24.18 24.18 0 0 1  96.72 314.34000000000003 L 72.54 290.16 A 24.18 24.18 0 0 0 96.72 314.34000000000003" fill="#f4e2b6"/><path d="M 96.72 314.34000000000003 A 24.18 24.18 0 0 1  120.9 290.16 L 96.72 314.34000000000003 A 24.18 24.18 0 0 0 120.9 290.16" fill="#f3f9f9"/><path d="M 314.34 290.16 A 24.18 24.18 0 0 1  338.52 314.34000000000003 L 314.34 290.16 A 24.18 24.18 0 0 0 338.52 314.34000000000003" fill="#f6e8c4"/><path d="M 411.06 290.16 A 24.18 24.18 0 0 1  435.24 314.34000000000003 L 411.06 290.16 A 24.18 24.18 0 0 0 435.24 314.34000000000003" fill="#7dc3bb"/><rect x="48.36" y="314.34" width="24.18" height="24.18" fill="#ffffff"/><path d="M 60.45 326.43 A 12.09 12.09 0 0 1  72.54 338.52 L 60.45 326.43 A 12.09 12.09 0 0 0 72.54 338.52" fill="#6fbdb4"/><path d="M 120.9 338.52 A 24.18 24.18 0 0 1  145.08 314.34 L 120.9 338.52 A 24.18 24.18 0 0 0 145.08 314.34" fill="#4faea3"/><rect x="145.07999999999998" y="314.34" width="24.18" height="24.18" fill="#ffffff"/><path d="M 145.08 314.34 A 12.09 12.09 0 0 1  157.17000000000002 326.42999999999995 L 145.08 314.34 A 12.09 12.09 0 0 0 157.17000000000002 326.42999999999995" fill="#f4bbad"/><path d="M 265.98 314.34 A 24.18 24.18 0 0 1  290.16 338.52 L 265.98 314.34 A 24.18 24.18 0 0 0 290.16 338.52" fill="#fef9f8"/><rect x="314.34" y="314.34" width="24.18" height="24.18" fill="#ffffff"/><rect x="386.88" y="314.34" width="24.18" height="24.18" fill="#ffffff"/><path d="M 386.88 314.34 A 12.09 12.09 0 0 1  398.96999999999997 326.42999999999995 L 386.88 314.34 A 12.09 12.09 0 0 0 398.96999999999997 326.42999999999995" fill="#8ecbc4"/><path d="M 411.06 338.52 A 24.18 24.18 0 0 1  435.24 314.34 L 411.06 338.52 A 24.18 24.18 0 0 0 435.24 314.34" fill="#f7d0c6"/><path d="M 435.24 338.52 A 24.18 24.18 0 0 1  459.42 314.34 L 435.24 338.52 A 24.18 24.18 0 0 0 459.42 314.34" fill="#8ac9c2"/><path d="M 24.18 362.7 A 24.18 24.18 0 0 1  48.36 338.52 L 24.18 362.7 A 24.18 24.18 0 0 0 48.36 338.52" fill="#f8edd2"/><rect x="290.15999999999997" y="338.52" width="24.18" height="24.18" fill="#ffffff"/><path d="M 362.7 338.52 A 24.18 24.18 0 0 1  386.88 362.7 L 362.7 338.52 A 24.18 24.18 0 0 0 386.88 362.7" fill="#a4d5cf"/><rect x="411.06" y="338.52" width="24.18" height="24.18" fill="#ffffff"/><path d="M 411.06 362.7 A 12.09 12.09 0 0 1  423.15 350.61 L 411.06 362.7 A 12.09 12.09 0 0 0 423.15 350.61" fill="#b1dbd6"/><path d="M 423.15 350.61 A 12.09 12.09 0 0 1  435.23999999999995 362.7 L 423.15 350.61 A 12.09 12.09 0 0 0 435.23999999999995 362.7" fill="#f1daa3"/><path d="M 48.36 386.88 A 24.18 24.18 0 0 1  72.53999999999999 362.7 L 48.36 386.88 A 24.18 24.18 0 0 0 72.53999999999999 362.7" fill="#f8ebcd"/><path d="M 72.54 386.88 A 24.18 24.18 0 0 1  96.72 362.7 L 72.54 386.88 A 24.18 24.18 0 0 0 96.72 362.7" fill="#f6c8bd"/><path d="M 120.9 386.88 A 24.18 24.18 0 0 1  145.08 362.7 L 120.9 386.88 A 24.18 24.18 0 0 0 145.08 362.7" fill="#f4e2b6"/><rect x="265.98" y="362.7" width="24.18" height="24.18" fill="#ffffff"/><path d="M 278.07 386.88 A 12.09 12.09 0 0 1  290.15999999999997 374.79 L 278.07 386.88 A 12.09 12.09 0 0 0 290.15999999999997 374.79" fill="#ea8167"/><rect x="314.34" y="362.7" width="24.18" height="24.18" fill="#ffffff"/><path d="M 326.43 362.7 A 12.09 12.09 0 0 1  338.52 374.78999999999996 L 326.43 362.7 A 12.09 12.09 0 0 0 338.52 374.78999999999996" fill="#60b5ac"/><path d="M 314.34 374.79 A 12.09 12.09 0 0 1  326.42999999999995 386.88 L 314.34 374.79 A 12.09 12.09 0 0 0 326.42999999999995 386.88" fill="#fbe4df"/><rect x="411.06" y="362.7" width="24.18" height="24.18" fill="#ffffff"/><path d="M 423.15 362.7 A 12.09 12.09 0 0 1  435.23999999999995 374.78999999999996 L 423.15 362.7 A 12.09 12.09 0 0 0 435.23999999999995 374.78999999999996" fill="#55b1a6"/><rect x="435.24" y="362.7" width="24.18" height="24.18" fill="#ffffff"/><path d="M 435.24 386.88 A 12.09 12.09 0 0 1  447.33 374.79 L 435.24 386.88 A 12.09 12.09 0 0 0 447.33 374.79" fill="#f1dba4"/><path d="M 459.42 362.7 A 24.18 24.18 0 0 1  483.6 386.88 L 459.42 362.7 A 24.18 24.18 0 0 0 483.6 386.88" fill="#f3dfae"/><rect x="72.53999999999999" y="386.88" width="24.18" height="24.18" fill="#ffffff"/><path d="M 72.54 386.88 A 12.09 12.09 0 0 1  84.63000000000001 398.96999999999997 L 72.54 386.88 A 12.09 12.09 0 0 0 84.63000000000001 398.96999999999997" fill="#bee1dd"/><path d="M 84.63 386.88 A 12.09 12.09 0 0 1  96.72 398.96999999999997 L 84.63 386.88 A 12.09 12.09 0 0 0 96.72 398.96999999999997" fill="#f3b9aa"/><path d="M 72.54 411.06 A 12.09 12.09 0 0 1  84.63000000000001 398.97 L 72.54 411.06 A 12.09 12.09 0 0 0 84.63000000000001 398.97" fill="#f7cdc2"/><path d="M 120.9 411.06 A 24.18 24.18 0 0 1  145.08 386.88 L 120.9 411.06 A 24.18 24.18 0 0 0 145.08 386.88" fill="#62b6ad"/><rect x="193.44" y="386.88" width="24.18" height="24.18" fill="#ffffff"/><path d="M 193.44 386.88 A 12.09 12.09 0 0 1  205.53 398.96999999999997 L 193.44 386.88 A 12.09 12.09 0 0 0 205.53 398.96999999999997" fill="#f2dda8"/><rect x="241.8" y="386.88" width="24.18" height="24.18" fill="#ffffff"/><path d="M 241.8 386.88 A 12.09 12.09 0 0 1  253.89000000000001 398.96999999999997 L 241.8 386.88 A 12.09 12.09 0 0 0 253.89000000000001 398.96999999999997" fill="#ebcb7b"/><path d="M 290.16 386.88 A 24.18 24.18 0 0 1  314.34000000000003 411.06 L 290.16 386.88 A 24.18 24.18 0 0 0 314.34000000000003 411.06" fill="#fceeea"/><rect x="411.06" y="386.88" width="24.18" height="24.18" fill="#ffffff"/><path d="M 411.06 386.88 A 12.09 12.09 0 0 1  423.15 398.96999999999997 L 411.06 386.88 A 12.09 12.09 0 0 0 423.15 398.96999999999997" fill="#e4f3f1"/><path d="M 411.06 411.06 A 12.09 12.09 0 0 1  423.15 398.97 L 411.06 411.06 A 12.09 12.09 0 0 0 423.15 398.97" fill="#94cdc7"/><rect x="459.42" y="386.88" width="24.18" height="24.18" fill="#ffffff"/><path d="M 471.51 398.96999999999997 A 12.09 12.09 0 0 1  483.59999999999997 386.88 L 471.51 398.96999999999997 A 12.09 12.09 0 0 0 483.59999999999997 386.88" fill="#c5e4e0"/><path d="M 48.36 411.06 A 24.18 24.18 0 0 1  72.53999999999999 435.24 L 48.36 411.06 A 24.18 24.18 0 0 0 72.53999999999999 435.24" fill="#d6ece9"/><path d="M 96.72 435.24 A 24.18 24.18 0 0 1  120.9 411.06 L 96.72 435.24 A 24.18 24.18 0 0 0 120.9 411.06" fill="#9fd3cd"/><rect x="145.07999999999998" y="411.06" width="24.18" height="24.18" fill="#ffffff"/><path d="M 145.08 423.15 A 12.09 12.09 0 0 1  157.17000000000002 411.06 L 145.08 423.15 A 12.09 12.09 0 0 0 157.17000000000002 411.06" fill="#f7d0c7"/><path d="M 157.17 423.15 A 12.09 12.09 0 0 1  169.26 411.06 L 157.17 423.15 A 12.09 12.09 0 0 0 169.26 411.06" fill="#fafdfc"/><path d="M 157.17 423.15 A 12.09 12.09 0 0 1  169.26 435.23999999999995 L 157.17 423.15 A 12.09 12.09 0 0 0 169.26 435.23999999999995" fill="#eed18b"/><path d="M 169.26 411.06 A 24.18 24.18 0 0 1  193.44 435.24 L 169.26 411.06 A 24.18 24.18 0 0 0 193.44 435.24" fill="#fbe6e0"/><rect x="241.8" y="411.06" width="24.18" height="24.18" fill="#ffffff"/><path d="M 241.8 423.15 A 12.09 12.09 0 0 1  253.89000000000001 411.06 L 241.8 423.15 A 12.09 12.09 0 0 0 253.89000000000001 411.06" fill="#6dbcb3"/><path d="M 253.89 435.23999999999995 A 12.09 12.09 0 0 1  265.97999999999996 423.15 L 253.89 435.23999999999995 A 12.09 12.09 0 0 0 265.97999999999996 423.15" fill="#c5e4e1"/><path d="M 290.16 411.06 A 24.18 24.18 0 0 1  314.34000000000003 435.24 L 290.16 411.06 A 24.18 24.18 0 0 0 314.34000000000003 435.24" fill="#ed917a"/><rect x="314.34" y="411.06" width="24.18" height="24.18" fill="#ffffff"/><path d="M 326.43 435.23999999999995 A 12.09 12.09 0 0 1  338.52 423.15 L 326.43 435.23999999999995 A 12.09 12.09 0 0 0 338.52 423.15" fill="#ef9d89"/><rect x="362.7" y="411.06" width="24.18" height="24.18" fill="#ffffff"/><path d="M 362.7 411.06 A 12.09 12.09 0 0 1  374.78999999999996 423.15 L 362.7 411.06 A 12.09 12.09 0 0 0 374.78999999999996 423.15" fill="#faf3e1"/><rect x="386.88" y="411.06" width="24.18" height="24.18" fill="#ffffff"/><path d="M 386.88 423.15 A 12.09 12.09 0 0 1  398.96999999999997 435.23999999999995 L 386.88 423.15 A 12.09 12.09 0 0 0 398.96999999999997 435.23999999999995" fill="#51afa4"/><rect x="24.18" y="435.24" width="24.18" height="24.18" fill="#ffffff"/><path d="M 36.27 447.33 A 12.09 12.09 0 0 1  48.36 459.41999999999996 L 36.27 447.33 A 12.09 12.09 0 0 0 48.36 459.41999999999996" fill="#b0dbd6"/><rect x="72.53999999999999" y="435.24" width="24.18" height="24.18" fill="#ffffff"/><path d="M 72.54 447.33 A 12.09 12.09 0 0 1  84.63000000000001 435.24 L 72.54 447.33 A 12.09 12.09 0 0 0 84.63000000000001 435.24" fill="#f0a290"/><rect x="96.72" y="435.24" width="24.18" height="24.18" fill="#ffffff"/><path d="M 96.72 435.24 A 12.09 12.09 0 0 1  108.81 447.33 L 96.72 435.24 A 12.09 12.09 0 0 0 108.81 447.33" fill="#fcefeb"/><path d="M 120.9 435.24 A 24.18 24.18 0 0 1  145.08 459.42 L 120.9 435.24 A 24.18 24.18 0 0 0 145.08 459.42" fill="#f6e7c1"/><path d="M 145.08 459.42 A 24.18 24.18 0 0 1  169.26000000000002 435.24 L 145.08 459.42 A 24.18 24.18 0 0 0 169.26000000000002 435.24" fill="#fae2dc"/><path d="M 217.62 435.24 A 24.18 24.18 0 0 1  241.8 459.42 L 217.62 435.24 A 24.18 24.18 0 0 0 241.8 459.42" fill="#f9fcfc"/><rect x="290.15999999999997" y="435.24" width="24.18" height="24.18" fill="#ffffff"/><path d="M 290.16 435.24 A 12.09 12.09 0 0 1  302.25 447.33 L 290.16 435.24 A 12.09 12.09 0 0 0 302.25 447.33" fill="#f2af9e"/><rect x="362.7" y="435.24" width="24.18" height="24.18" fill="#ffffff"/><path d="M 374.79 447.33 A 12.09 12.09 0 0 1  386.88 435.24 L 374.79 447.33 A 12.09 12.09 0 0 0 386.88 435.24" fill="#fbf5e6"/><path d="M 362.7 447.33 A 12.09 12.09 0 0 1  374.78999999999996 459.41999999999996 L 362.7 447.33 A 12.09 12.09 0 0 0 374.78999999999996 459.41999999999996" fill="#f8d7cf"/><path d="M 386.88 435.24 A 24.18 24.18 0 0 1  411.06 459.42 L 386.88 435.24 A 24.18 24.18 0 0 0 411.06 459.42" fill="#f9d9d2"/><path d="M 411.06 435.24 A 24.18 24.18 0 0 1  435.24 459.42 L 411.06 435.24 A 24.18 24.18 0 0 0 435.24 459.42" fill="#f3e0b2"/><rect x="459.42" y="435.24" width="24.18" height="24.18" fill="#ffffff"/><path d="M 459.42 447.33 A 12.09 12.09 0 0 1  471.51 459.41999999999996 L 459.42 447.33 A 12.09 12.09 0 0 0 471.51 459.41999999999996" fill="#fdf9f0"/><path d="M 120.9 483.6 A 24.18 24.18 0 0 1  145.08 459.42 L 120.9 483.6 A 24.18 24.18 0 0 0 145.08 459.42" fill="#96cec8"/><path d="M 169.26 459.42 A 24.18 24.18 0 0 1  193.44 483.6 L 169.26 459.42 A 24.18 24.18 0 0 0 193.44 483.6" fill="#e1f1ef"/><rect x="241.8" y="459.42" width="24.18" height="24.18" fill="#ffffff"/><path d="M 241.8 459.42 A 12.09 12.09 0 0 1  253.89000000000001 471.51 L 241.8 459.42 A 12.09 12.09 0 0 0 253.89000000000001 471.51" fill="#f1ad9c"/><path d="M 253.89 459.42 A 12.09 12.09 0 0 1  265.97999999999996 471.51 L 253.89 459.42 A 12.09 12.09 0 0 0 265.97999999999996 471.51" fill="#f9ddd6"/><path d="M 241.8 471.51 A 12.09 12.09 0 0 1  253.89000000000001 483.59999999999997 L 241.8 471.51 A 12.09 12.09 0 0 0 253.89000000000001 483.59999999999997" fill="#fbf5e5"/><path d="M 253.89 471.51 A 12.09 12.09 0 0 1  265.97999999999996 483.59999999999997 L 253.89 471.51 A 12.09 12.09 0 0 0 265.97999999999996 483.59999999999997" fill="#f3deac"/><path d="M 338.52 459.42 A 24.18 24.18 0 0 1  362.7 483.6 L 338.52 459.42 A 24.18 24.18 0 0 0 362.7 483.6" fill="#f3b3a4"/><path d="M 362.7 483.6 A 24.18 24.18 0 0 1  386.88 459.42 L 362.7 483.6 A 24.18 24.18 0 0 0 386.88 459.42" fill="#95cec8"/></g></svg>